<svg xmlns="http://www.w3.org/2000/svg" viewBox="0 0 200 200" width="200" height="200" role="img" aria-label="شعار المنظمة الشبابية لإنماء قرية اسبيخات">
  <defs>
    <linearGradient id="bg" x1="0" y1="0" x2="0" y2="1">
      <stop offset="0" stop-color="#14563F"/>
      <stop offset="1" stop-color="#0B2E22"/>
    </linearGradient>
  </defs>

  <circle cx="100" cy="100" r="98" fill="url(#bg)"/>
  <circle cx="100" cy="100" r="89" fill="none" stroke="#C9992F" stroke-width="2.5"/>

  <!-- الجذع -->
  <path d="M100 152 L100 99" stroke="#F7F5EF" stroke-width="6.5" stroke-linecap="round"/>

  <!-- سعف النخلة -->
  <path d="M100 96 C74 96 54 88 44 72 C68 70 90 78 100 96 Z" fill="#2E8B6B"/>
  <path d="M100 96 C126 96 146 88 156 72 C132 70 110 78 100 96 Z" fill="#2E8B6B"/>
  <path d="M100 92 C80 84 66 66 62 46 C82 54 96 72 100 92 Z" fill="#3D9C79"/>
  <path d="M100 92 C120 84 134 66 138 46 C118 54 104 72 100 92 Z" fill="#3D9C79"/>
  <path d="M100 90 C93 68 96 46 100 32 C104 46 107 68 100 90 Z" fill="#49B189"/>

  <!-- أرض القرية -->
  <path d="M58 156 H142" stroke="#C9992F" stroke-width="6" stroke-linecap="round"/>
</svg>
